<?xml version="1.0" standalone="no"?>
<!DOCTYPE svg PUBLIC "-//W3C//DTD SVG 20010904//EN"
 "http://www.w3.org/TR/2001/REC-SVG-20010904/DTD/svg10.dtd">
<svg version="1.0" xmlns="http://www.w3.org/2000/svg"
 width="282.000000pt" height="282.000000pt" viewBox="0 0 282.000000 282.000000"
 preserveAspectRatio="xMidYMid meet">
<metadata>
Created by potrace 1.14, written by Peter Selinger 2001-2017
</metadata>
<g transform="translate(0.000000,282.000000) scale(0.100000,-0.100000)"
fill="#000000" stroke="none">
<path d="M197 2805 c-57 -20 -114 -61 -141 -103 -58 -86 -54 -6 -52 -1302 1
-1115 3 -1198 19 -1233 25 -53 84 -111 145 -140 l52 -25 1197 1 c1163 2 1199
3 1237 21 45 23 116 89 133 126 31 66 32 112 31 1270 0 1272 3 1196 -54 1282
-23 36 -80 80 -135 104 -40 18 -2380 17 -2432 -1z"/>
</g>
</svg>
